<svg  class="icon" viewBox="0 0 1024 1024" version="1.1" xmlns="http://www.w3.org/2000/svg"  width="200" height="200"><path d="M475.648 75.648c24.064-11.328 51.904-11.328 76.16 0l294.016 140.16c24.384 11.52 42.176 33.6 48.064 59.776l72.704 316.608c5.248 25.792-1.28 52.928-17.92 73.6l-203.712 253.632c-16.896 20.48-41.92 32.32-68.608 32.448H349.824c-26.624 0-51.84-11.968-68.864-32.768L76.864 664.96l-4.608-6.272A87.36 87.36 0 0 1 60.48 591.36L133.12 275.776c6.144-25.984 23.68-47.872 47.808-59.456z m154.176 641.664l-37.12 17.856 1.28 0.64a39.552 39.552 0 0 1 8.512 6.144c5.504 7.04 11.712 25.856 15.808 39.68l0.96 3.264a25.344 25.344 0 0 0 3.392 12.288l0.064 0.384 0.064-0.064 0.448 0.64c6.08 9.728 17.728 13.952 27.136 9.408 9.728-4.672 13.632-16.832 9.408-27.776v-0.192l-0.832-1.792a25.408 25.408 0 0 0-6.528-8.384c-8.32-11.968-20.864-31.232-23.232-40.768a38.4 38.4 0 0 1 0.32-9.152l0.32-2.176zM509.248 599.68l58.368 94.912-2.24 0.768a178.432 178.432 0 0 1-109.888 1.6l53.76-97.28z m-59.2-29.888l-38.464 106.752-1.664-1.088a179.2 179.2 0 0 1-69.376-87.04l109.504-18.56z m119.552 2.176l107.008 13.12-0.768 2.112a178.56 178.56 0 0 1-64.832 84.928L569.6 571.904z m-42.048-83.712l20.928 26.368-7.488 32.832-30.336 14.592-30.336-14.656-7.488-32.832 20.992-26.304h33.728z m-171.776-55.424l80.64 72.064-106.368 36.096-0.256-3.008a177.728 177.728 0 0 1 25.984-105.152z m305.024 0.896l1.088 1.792a177.792 177.792 0 0 1 24.384 101.12L585.6 507.52l75.264-73.856zM534.144 349.504l1.92 0.256a177.984 177.984 0 0 1 93.312 45.44l-84.352 59.712-10.88-105.408z m-49.6-0.448L478.72 453.632 386.944 394.88l1.472-1.28c26.752-24.256 60.288-39.68 96.128-44.48z m-161.344 54.656l-1.152 1.728a221.44 221.44 0 0 0-33.856 149.696l-2.496 0.832 0.256 1.152-0.256-1.088-1.536 1.664a35.904 35.904 0 0 1-7.232 6.4c-8.064 3.776-27.712 5.632-42.112 6.528l-3.52 0.256a25.28 25.28 0 0 0-12.8 0.512H218.24v0.128l-0.704 0.256c-10.88 3.776-17.536 14.144-15.232 24.384 2.432 10.496 13.376 17.024 25.088 15.36h0.128l1.92-0.384a25.28 25.28 0 0 0 9.664-4.48c13.568-5.44 35.072-13.44 44.928-13.632 1.92 0 6.592 1.536 9.088 2.496l1.792 0.64 2.624-0.448 0.64 1.856c17.28 50.624 52.224 93.376 98.56 120.32l-0.64 1.536 5.696 2.752-5.632-2.688a46.464 46.464 0 0 1 0.832 11.904c-2.048 8.384-12.288 24.32-20.48 35.968l-2.688 3.904a25.216 25.216 0 0 0-7.552 10.368l-0.192 0.256h0.064l-0.256 0.768c-3.84 10.816 0.192 22.528 9.6 27.072 9.728 4.608 21.632 0.192 27.648-9.984v-0.064l1.024-1.856a25.408 25.408 0 0 0 2.56-10.368c4.16-13.888 11.328-35.776 17.28-43.52a43.264 43.264 0 0 1 7.68-5.696l1.6-0.896 1.088-2.176 2.048 0.704c50.24 17.152 104.96 15.744 154.24-4.032l2.048 3.264 37.12-17.856-1.92-4.608 1.728-1.152a222.208 222.208 0 0 0 90.624-121.088l7.36 0.896v-0.064l0.704-0.32a43.52 43.52 0 0 1 10.688-3.136c8.96 0.128 27.456 6.976 40.768 12.352l3.264 1.408a25.408 25.408 0 0 0 11.776 4.992l0.32 0.192v-0.128l0.704 0.128c11.456 1.28 21.952-5.184 24.32-15.424 2.432-10.496-4.544-21.12-15.808-24.704h-0.192l-1.92-0.576a25.472 25.472 0 0 0-10.624-0.128c-14.528-1.024-37.44-3.136-46.336-7.232a37.696 37.696 0 0 1-6.848-5.888l-1.6-1.664-2.56 10.944 2.56-10.88-8.256-2.432 0.32-3.136a221.696 221.696 0 0 0-36.608-142.72l6.912-6.784-0.832-1.152 0.832 1.088 0.32-1.088a41.408 41.408 0 0 1 4.096-9.984c5.696-6.848 22.528-17.088 35.072-24.128l3.2-1.728a25.344 25.344 0 0 0 9.856-4.864l1.28-1.152 0.384-0.192-0.064-0.064 0.576-0.576c8.128-8.064 9.6-20.352 3.072-28.544-6.72-8.384-19.392-9.6-29.184-3.008l-0.128 0.128-0.576 0.384-1.024 0.768a25.344 25.344 0 0 0-6.784 8.192c-9.856 10.752-25.792 27.328-34.56 31.744a40.064 40.064 0 0 1-9.28 1.728l-1.92 0.128-8.32 6.016-0.128-0.128-1.536-1.536a221.696 221.696 0 0 0-133.888-62.592l-0.96-8.96H528.64l-0.64-0.896a41.728 41.728 0 0 1-5.248-9.472c-1.792-8.448 0.512-27.2 2.752-41.28l0.832-4.736a25.28 25.28 0 0 0 2.304-10.816v-2.112h-0.064l-0.064-0.704c-1.28-11.456-9.984-20.288-20.48-20.288-10.752 0-19.52 9.216-20.48 20.992h-0.064v2.112c0 3.584 0.64 7.168 2.176 10.432 2.24 14.4 5.312 37.184 3.264 46.72a43.584 43.584 0 0 1-4.48 8.576l-0.96 1.472-0.448 8.896-2.048 0.192a220.992 220.992 0 0 0-135.232 65.28l-4.992-3.2H343.552a74.048 74.048 0 0 1-7.552-0.896l-3.136-0.896c-8-3.968-21.76-18.112-31.36-28.8l-2.368-2.624a25.28 25.28 0 0 0-6.976-8.576l-1.408-1.088-0.256-0.256v0.064l-0.704-0.448c-9.728-6.08-22.016-4.8-28.544 3.392-6.656 8.384-4.992 21.056 3.648 29.12l0.128 0.128 0.768 0.64 0.768 0.64c2.752 2.24 6.016 3.84 9.472 4.8 12.672 7.168 32.384 19.008 38.592 26.56a37.824 37.824 0 0 1 3.648 8.32l0.768 2.176 4.16 3.712z" fill="#1296db" fill-opacity=".65" ></path></svg>